<?xml version="1.0" encoding="utf-8"?>
<!-- Generator: Adobe Illustrator 23.0.2, SVG Export Plug-In . SVG Version: 6.00 Build 0)  -->
<svg version="1.1" id="图层_1" xmlns="http://www.w3.org/2000/svg" xmlns:xlink="http://www.w3.org/1999/xlink" x="0px" y="0px"
	 viewBox="0 0 949 256" style="enable-background:new 0 0 949 256;" xml:space="preserve">
<image style="overflow:visible;" width="651" height="656" xlink:href="../../../ustc.png"  transform="matrix(0.4017 0 0 0.4017 -8 -9.8281)">
</image>
<g>
	<g>
		<path d="M358.8,63.2v81.3c0,34.3,16,47.5,35.9,47.5c22.2,0,37.7-14.4,37.7-47.5V63.2h9.5v80.5c0,41.3-22.3,56.5-47.7,56.5
			c-23.5,0-44.8-13.8-44.8-55V63.2H358.8z"/>
		<path d="M510.2,183.1c7.6,5.2,18.1,8.9,29.4,8.9c20.2,0,32.5-11.4,32.5-28c0-15.1-7.8-24-27.3-31.5c-21.7-7.7-34.7-18.9-34.7-37.2
			c0-19.7,16.3-34.1,39.2-34.1c12.6,0,22.3,3.3,26.8,6.4l-3.7,8c-3.6-2.5-12.3-6.4-23.8-6.4c-21.7,0-29.1,14-29.1,24.5
			c0,14.9,8.7,22.6,28,30.1c22.2,9,34,19.1,34,39.3c0,19.5-14,37-42.7,37c-11.6,0-25.2-3.8-32.2-9L510.2,183.1z"/>
		<path d="M672.8,71.2h-43.9v-8h97.4v8h-43.9V198h-9.5V71.2z"/>
		<path d="M871.6,193.3c-6.8,3.4-19.8,6.8-36.3,6.8c-32.6,0-63.8-20.8-63.8-68.7c0-40,25.8-70.3,68.3-70.3c17.2,0,27.1,3.8,31.3,5.9
			l-3.1,8c-6.8-3.4-16.6-5.8-28-5.8c-36.3,0-58.5,23.6-58.5,62.4c0,36.6,20.9,60.2,56.9,60.2c11.5,0,22.8-2.3,30.5-6.3L871.6,193.3z
			"/>
	</g>
</g>
</svg>
